
<svg width="31" height="31" viewBox="0 0 31 31" fill="none" xmlns="http://www.w3.org/2000/svg">
    <circle cx="15.5" cy="15.5" r="15.5" fill="#2B0A57" />
    <path
        d="M19.0779 10.5014C19.2368 10.3424 19.4255 10.2163 19.6332 10.1303C19.8409 10.0443 20.0635 10 20.2883 10C20.513 10 20.7356 10.0443 20.9433 10.1303C21.151 10.2163 21.3397 10.3424 21.4986 10.5014C21.6576 10.6603 21.7837 10.849 21.8697 11.0567C21.9557 11.2644 22 11.487 22 11.7117C22 11.9365 21.9557 12.1591 21.8697 12.3668C21.7837 12.5745 21.6576 12.7632 21.4986 12.9221L13.3286 21.0922L10 22L10.9078 18.6714L19.0779 10.5014Z"
        fill="#FDFDFD" stroke="#FDFDFD" stroke-linecap="round" stroke-linejoin="round" />
</svg>